<svg width="450" height="107" viewBox="0 0 450 107" fill="none" xmlns="http://www.w3.org/2000/svg">
<g clip-path="url(#clip0)">
<path d="M185.671 51.9871L183.366 63.157L177.643 90.7934H164.059L169.782 63.157H163L165.31 51.9829L185.671 51.9871ZM175.583 44.7412C173.228 42.0466 173.947 37.4237 177.181 34.4217C180.414 31.4198 184.948 31.1756 187.315 33.8744C189.682 36.5732 188.95 41.1961 185.716 44.198C182.483 47.2 177.941 47.4442 175.583 44.7412Z" fill="#4DD82B"/>
<path d="M207.743 60.3315L203.68 80.023C203.271 82.0103 203.508 82.3766 205.433 82.3766H213.883L211.577 93.5549H200.422C192.442 93.5549 188.379 88.2415 190.075 80.023L194.138 60.3315H189L191.306 49.1532H196.456L198.345 40H211.945L210.057 49.1532H220.751L218.433 60.3315H207.743Z" fill="#4DD82B"/>
<path d="M45.7338 34.6923H62.9765L48.6321 105H31.3894L45.7338 34.6923Z" fill="white"/>
<path d="M71.0337 34.6923H88.2764L77.1001 89.7797H59.8533L71.0337 34.6923Z" fill="white"/>
<path d="M20.1804 34.6923H37.4231L26.2468 89.7797H9L20.1804 34.6923Z" fill="white"/>
<path d="M210.272 92V57.2H215.504V71.984H232.928V57.2H238.208C238.208 57.616 238.208 58.4 238.208 59.552C238.208 60.672 238.208 62.016 238.208 63.584C238.208 65.152 238.208 66.896 238.208 68.816C238.208 70.704 238.192 72.64 238.16 74.624C238.16 76.576 238.16 78.512 238.16 80.432C238.16 82.32 238.16 84.048 238.16 85.616C238.16 87.184 238.16 88.544 238.16 89.696C238.16 90.816 238.16 91.584 238.16 92H232.928V76.976H215.504V92H210.272ZM259.605 92.384C257.749 92.384 256.021 92.08 254.421 91.472C252.821 90.864 251.413 90.016 250.197 88.928C249.013 87.808 248.069 86.48 247.365 84.944C246.693 83.376 246.357 81.632 246.357 79.712V57.2H251.637V79.568C251.637 80.688 251.829 81.728 252.213 82.688C252.629 83.616 253.189 84.448 253.893 85.184C254.629 85.888 255.477 86.448 256.437 86.864C257.397 87.248 258.453 87.44 259.605 87.44C260.725 87.44 261.765 87.248 262.725 86.864C263.717 86.448 264.565 85.888 265.269 85.184C266.005 84.448 266.581 83.616 266.997 82.688C267.413 81.728 267.621 80.688 267.621 79.568V57.2H272.901V79.712C272.901 81.632 272.549 83.376 271.845 84.944C271.173 86.48 270.229 87.808 269.013 88.928C267.829 90.016 266.421 90.864 264.789 91.472C263.189 92.08 261.461 92.384 259.605 92.384ZM286.333 61.952V72.224H291.037C292.765 72.224 294.061 71.712 294.925 70.688C295.789 69.664 296.221 68.416 296.221 66.944C296.221 65.216 295.693 63.952 294.637 63.152C293.613 62.352 292.237 61.952 290.509 61.952H286.333ZM286.333 76.688V87.248H291.229C292.157 87.248 293.021 87.136 293.821 86.912C294.653 86.688 295.373 86.368 295.981 85.952C296.589 85.504 297.069 84.944 297.421 84.272C297.773 83.6 297.949 82.816 297.949 81.92C297.949 80.928 297.741 80.112 297.325 79.472C296.909 78.8 296.349 78.256 295.645 77.84C294.973 77.424 294.189 77.136 293.293 76.976C292.429 76.784 291.533 76.688 290.605 76.688H286.333ZM281.053 92V57.2H290.269C291.965 57.2 293.501 57.376 294.877 57.728C296.253 58.048 297.421 58.576 298.381 59.312C299.341 60.016 300.077 60.944 300.589 62.096C301.133 63.216 301.405 64.592 301.405 66.224C301.405 67.12 301.309 68 301.117 68.864C300.957 69.728 300.669 70.528 300.253 71.264C299.869 71.968 299.341 72.592 298.669 73.136C298.029 73.68 297.229 74.096 296.269 74.384C297.101 74.544 297.917 74.816 298.717 75.2C299.549 75.584 300.285 76.112 300.925 76.784C301.565 77.424 302.077 78.224 302.461 79.184C302.877 80.144 303.085 81.28 303.085 82.592C303.085 84.256 302.765 85.68 302.125 86.864C301.485 88.048 300.637 89.024 299.581 89.792C298.525 90.56 297.309 91.12 295.933 91.472C294.557 91.824 293.133 92 291.661 92H281.053Z" fill="white"/>
</g>
<path d="M323.272 91V56.2H328.552V86.008H345.832V91H323.272ZM347.394 80.92C347.394 79.48 347.666 78.12 348.21 76.84C348.786 75.56 349.554 74.456 350.514 73.528C351.474 72.568 352.594 71.816 353.874 71.272C355.186 70.696 356.594 70.408 358.098 70.408C359.602 70.408 360.994 70.696 362.274 71.272C363.586 71.816 364.706 72.568 365.634 73.528C366.594 74.456 367.33 75.56 367.842 76.84C368.386 78.12 368.658 79.48 368.658 80.92C368.658 82.36 368.386 83.72 367.842 85C367.33 86.28 366.594 87.4 365.634 88.36C364.706 89.32 363.586 90.088 362.274 90.664C360.994 91.208 359.586 91.48 358.05 91.48C356.578 91.48 355.186 91.224 353.874 90.712C352.594 90.2 351.474 89.48 350.514 88.552C349.554 87.624 348.786 86.52 348.21 85.24C347.666 83.928 347.394 82.488 347.394 80.92ZM351.474 80.968C351.474 81.864 351.634 82.712 351.954 83.512C352.306 84.28 352.77 84.968 353.346 85.576C353.954 86.152 354.642 86.616 355.41 86.968C356.21 87.288 357.058 87.448 357.954 87.448C358.85 87.448 359.698 87.288 360.498 86.968C361.298 86.616 361.986 86.152 362.562 85.576C363.17 84.968 363.65 84.28 364.002 83.512C364.354 82.712 364.53 81.864 364.53 80.968C364.53 80.072 364.354 79.224 364.002 78.424C363.65 77.624 363.17 76.936 362.562 76.36C361.986 75.752 361.298 75.288 360.498 74.968C359.698 74.616 358.85 74.44 357.954 74.44C357.058 74.44 356.21 74.616 355.41 74.968C354.642 75.288 353.954 75.752 353.346 76.36C352.77 76.936 352.306 77.624 351.954 78.424C351.634 79.224 351.474 80.072 351.474 80.968ZM371.677 81.016C371.677 79.512 371.949 78.12 372.493 76.84C373.037 75.528 373.773 74.408 374.701 73.48C375.629 72.52 376.717 71.768 377.965 71.224C379.213 70.68 380.541 70.408 381.949 70.408C383.037 70.408 383.997 70.552 384.829 70.84C385.693 71.128 386.413 71.464 386.989 71.848C387.565 72.232 388.013 72.616 388.333 73C388.685 73.352 388.909 73.608 389.005 73.768C389.005 73.32 389.037 72.856 389.101 72.376C389.165 71.864 389.197 71.384 389.197 70.936H393.133V90.088C393.133 93.416 392.157 96.008 390.205 97.864C388.253 99.72 385.613 100.648 382.285 100.648C381.133 100.648 380.093 100.52 379.165 100.264C378.269 100.04 377.437 99.736 376.669 99.352C375.933 98.968 375.245 98.52 374.605 98.008C373.997 97.496 373.389 96.968 372.781 96.424L375.421 93.64C376.413 94.568 377.421 95.304 378.445 95.848C379.501 96.392 380.749 96.664 382.189 96.664C384.333 96.664 385.997 96.152 387.181 95.128C388.365 94.104 388.973 92.68 389.005 90.856V89.464C389.005 89.208 389.037 88.936 389.101 88.648C389.165 88.328 389.197 88.088 389.197 87.928C388.909 88.312 388.541 88.728 388.093 89.176C387.677 89.592 387.181 89.976 386.605 90.328C386.029 90.648 385.357 90.92 384.589 91.144C383.821 91.368 382.957 91.48 381.997 91.48C380.493 91.48 379.117 91.208 377.869 90.664C376.621 90.12 375.533 89.384 374.605 88.456C373.677 87.496 372.957 86.392 372.445 85.144C371.933 83.864 371.677 82.488 371.677 81.016ZM375.805 80.92C375.805 81.848 375.965 82.712 376.285 83.512C376.637 84.312 377.101 85 377.677 85.576C378.253 86.152 378.941 86.616 379.741 86.968C380.541 87.288 381.421 87.448 382.381 87.448C383.341 87.448 384.221 87.288 385.021 86.968C385.853 86.616 386.557 86.152 387.133 85.576C387.741 84.968 388.205 84.28 388.525 83.512C388.845 82.712 389.005 81.848 389.005 80.92C389.005 79.992 388.845 79.144 388.525 78.376C388.205 77.576 387.741 76.888 387.133 76.312C386.557 75.736 385.853 75.288 385.021 74.968C384.221 74.616 383.341 74.44 382.381 74.44C381.421 74.44 380.541 74.616 379.741 74.968C378.941 75.288 378.253 75.736 377.677 76.312C377.101 76.888 376.637 77.576 376.285 78.376C375.965 79.144 375.805 79.992 375.805 80.92ZM398.368 63.256C398.368 62.488 398.64 61.848 399.184 61.336C399.76 60.824 400.368 60.568 401.008 60.568C401.648 60.568 402.24 60.824 402.784 61.336C403.328 61.848 403.6 62.488 403.6 63.256C403.6 64.024 403.328 64.664 402.784 65.176C402.24 65.656 401.648 65.896 401.008 65.896C400.368 65.896 399.76 65.656 399.184 65.176C398.64 64.664 398.368 64.024 398.368 63.256ZM402.976 91H398.896V70.936H402.976V91ZM408.739 70.936H412.339C412.403 71.928 412.451 72.84 412.483 73.672C412.547 74.472 412.611 75.272 412.675 76.072C413.411 74.344 414.451 72.968 415.795 71.944C417.171 70.92 418.851 70.408 420.835 70.408C422.851 70.408 424.467 70.968 425.683 72.088C426.899 73.208 427.539 74.648 427.603 76.408V91H423.475V78.28C423.411 77.256 423.059 76.392 422.419 75.688C421.779 74.952 420.771 74.552 419.395 74.488C418.435 74.488 417.555 74.664 416.755 75.016C415.955 75.336 415.267 75.784 414.691 76.36C414.115 76.936 413.651 77.624 413.299 78.424C412.979 79.224 412.819 80.104 412.819 81.064V91H408.739V70.936Z" fill="white"/>
<path d="M318.989 84.5891C318.237 88.231 315.444 91.1824 311.222 91.1824C306.999 91.1824 305.429 88.2352 306.181 84.5891C306.934 80.943 309.726 78 313.948 78C318.171 78 319.729 80.943 318.989 84.5891Z" fill="#4CD62B"/>
<path d="M170.92 62.852V88.388C168.568 89.732 165.768 90.796 162.52 91.58C159.272 92.308 155.968 92.672 152.608 92.672C147.792 92.672 143.452 91.916 139.588 90.404C135.78 88.892 132.504 86.82 129.76 84.188C127.016 81.5 124.916 78.336 123.46 74.696C122.004 71.056 121.276 67.08 121.276 62.768C121.276 58.008 122.116 53.668 123.796 49.748C125.532 45.772 127.856 42.356 130.768 39.5C133.736 36.644 137.124 34.432 140.932 32.864C144.796 31.24 148.884 30.428 153.196 30.428C156.108 30.428 159.16 30.82 162.352 31.604C165.544 32.332 168.316 33.396 170.668 34.796L166.216 42.272C165.376 41.768 164.396 41.32 163.276 40.928C162.212 40.536 161.092 40.2 159.916 39.92C158.74 39.64 157.564 39.444 156.388 39.332C155.212 39.164 154.092 39.08 153.028 39.08C150.06 39.08 147.204 39.668 144.46 40.844C141.716 42.02 139.308 43.644 137.236 45.716C135.164 47.788 133.512 50.224 132.28 53.024C131.048 55.824 130.432 58.848 130.432 62.096C130.432 65.064 130.964 67.864 132.028 70.496C133.148 73.128 134.688 75.452 136.648 77.468C138.608 79.484 140.96 81.08 143.704 82.256C146.448 83.432 149.472 84.02 152.776 84.02C154.064 84.02 155.576 83.908 157.312 83.684C159.104 83.404 160.812 82.956 162.436 82.34V70.748H150.592V62.852H170.92Z" fill="white"/>
<defs>
<clipPath id="clip0">
<rect width="360" height="76" fill="white" transform="translate(0 27)"/>
</clipPath>
</defs>
</svg>
